# xmcd CD database file
#
# Track frame offsets:
#	150
#	13929
#	24422
#	33016
#	49330
#	95153
#	95925
#	109095
#	115948
#	127435
#	140981
#	213949
#
# Disc length: 3926 seconds
#
# Revision: 0
# Processed by: cddbd v1.5.2PL0 Copyright (c) Steve Scherf et al.
# Submitted via: CDex 1.51
#
DISCID=b80f540c
DTITLE=Jazz at the Philharmonic All Stars - JATP - Billie Holiday
DYEAR=1947
DGENRE=Jazz
TTITLE0=The Man I love
TTITLE1=Gee Baby, Ain't I Good To You?
TTITLE2=All Of Me
TTITLE3=Billie's Blues
TTITLE4=How High The Moon
TTITLE5=Norman Granz Announcement
TTITLE6=You Better Go Now
TTITLE7=You're Driving Me Crazy
TTITLE8=There Is No Greater Love
TTITLE9=I Cover The Waterfront
TTITLE10=Perdido
TTITLE11=Mordido
EXTD=YEAR: 1947
EXTT0=
EXTT1=
EXTT2=
EXTT3=
EXTT4=
EXTT5=
EXTT6=
EXTT7=
EXTT8=
EXTT9=
EXTT10=
EXTT11=
PLAYORDER=
